<svg width="780" height="330" viewBox="0 0 780 330" fill="none" xmlns="http://www.w3.org/2000/svg">
  <style>
    .flame { transform-origin: 170px 78px; animation: flicker 1.15s infinite ease-in-out; }
    .flame2 { transform-origin: 176px 92px; animation: flicker 1.45s infinite ease-in-out reverse; }
    .cursor { animation: blink 1s infinite steps(2); }
    .steam { animation: rise 2.4s infinite ease-in-out; opacity: .7; }
    @keyframes flicker {
      0%, 100% { transform: scale(1) rotate(0deg); opacity: .94; }
      50% { transform: scale(1.08) rotate(2deg); opacity: 1; }
    }
    @keyframes blink {
      0%, 45% { opacity: 1; }
      46%, 100% { opacity: 0; }
    }
    @keyframes rise {
      0% { transform: translateY(12px); opacity: 0; }
      45% { opacity: .8; }
      100% { transform: translateY(-16px); opacity: 0; }
    }
  </style>

  <rect width="780" height="330" rx="24" fill="#061726"/>
  <rect x="24" y="24" width="732" height="282" rx="18" fill="#0D1117" stroke="#243B55" stroke-width="2"/>

  <path class="flame" d="M125 91C131 58 159 42 168 15C191 45 214 62 209 99C231 87 237 67 236 52C267 91 254 139 216 162C196 174 158 179 130 161C99 141 94 111 125 91Z" fill="#F97316"/>
  <path class="flame2" d="M148 94C151 71 171 58 178 38C194 60 207 78 202 104C215 98 221 85 222 75C239 101 230 133 204 148C188 158 162 158 145 146C125 132 126 110 148 94Z" fill="#FBBF24"/>

  <circle cx="157" cy="151" r="55" fill="#F2C7A0"/>
  <path d="M103 140C115 112 139 101 165 103C196 105 219 119 229 149C213 130 195 122 167 122C141 122 121 130 103 140Z" fill="#111827"/>
  <circle cx="137" cy="155" r="6" fill="#111827"/>
  <circle cx="178" cy="155" r="6" fill="#111827"/>
  <path d="M141 181C153 191 169 191 181 181" stroke="#7C2D12" stroke-width="6" stroke-linecap="round"/>

  <rect x="77" y="221" width="176" height="64" rx="10" fill="#111827" stroke="#38BDF8" stroke-width="3"/>
  <rect x="55" y="280" width="220" height="18" rx="9" fill="#38BDF8"/>
  <text x="107" y="260" font-family="Consolas, monospace" font-size="18" fill="#A7F3D0">deploy?</text>

  <rect x="326" y="58" width="380" height="206" rx="14" fill="#111827" stroke="#374151" stroke-width="2"/>
  <circle cx="350" cy="82" r="6" fill="#EF4444"/>
  <circle cx="370" cy="82" r="6" fill="#F59E0B"/>
  <circle cx="390" cy="82" r="6" fill="#22C55E"/>

  <text x="350" y="125" font-family="Consolas, monospace" font-size="20" fill="#38BDF8">if (bug) {</text>
  <text x="378" y="160" font-family="Consolas, monospace" font-size="20" fill="#F8FAFC">console.log("again?");</text>
  <text x="378" y="195" font-family="Consolas, monospace" font-size="20" fill="#FBBF24">fix(); coffee++;</text>
  <text x="350" y="230" font-family="Consolas, monospace" font-size="20" fill="#38BDF8">}<tspan class="cursor">_</tspan></text>

  <rect x="528" y="276" width="178" height="34" rx="17" fill="#16A34A"/>
  <text x="555" y="298" font-family="Inter, Arial, sans-serif" font-size="15" font-weight="700" fill="#ECFDF5">works on my machine</text>

  <path class="steam" d="M292 93C280 78 301 66 288 51" stroke="#94A3B8" stroke-width="5" stroke-linecap="round"/>
  <path class="steam" d="M303 116C291 101 313 89 300 74" stroke="#94A3B8" stroke-width="5" stroke-linecap="round" style="animation-delay:.4s"/>
  <path d="M257 141C283 127 283 176 257 162" stroke="#F97316" stroke-width="8" stroke-linecap="round"/>
  <path d="M722 101C736 117 736 150 722 166" stroke="#7C3AED" stroke-width="8" stroke-linecap="round"/>
</svg>
